<svg width="24" height="25" viewBox="0 0 24 25" fill="none" xmlns="http://www.w3.org/2000/svg">
<path fill-rule="evenodd" clip-rule="evenodd" d="M16 3.8374H8C5.23858 3.8374 3 6.07598 3 8.8374V16.8374C3 19.5988 5.23858 21.8374 8 21.8374H16C18.7614 21.8374 21 19.5988 21 16.8374V8.8374C21 6.07598 18.7614 3.8374 16 3.8374ZM19.25 16.8374C19.2445 18.63 17.7926 20.0819 16 20.0874H8C6.20735 20.0819 4.75549 18.63 4.75 16.8374V8.8374C4.75549 7.04475 6.20735 5.59289 8 5.5874H16C17.7926 5.59289 19.2445 7.04475 19.25 8.8374V16.8374ZM16.75 9.0874C17.3023 9.0874 17.75 8.63968 17.75 8.0874C17.75 7.53512 17.3023 7.0874 16.75 7.0874C16.1977 7.0874 15.75 7.53512 15.75 8.0874C15.75 8.63968 16.1977 9.0874 16.75 9.0874ZM12 8.3374C9.51472 8.3374 7.5 10.3521 7.5 12.8374C7.5 15.3227 9.51472 17.3374 12 17.3374C14.4853 17.3374 16.5 15.3227 16.5 12.8374C16.5027 11.6431 16.0294 10.497 15.1849 9.65248C14.3404 8.80799 13.1943 8.33474 12 8.3374ZM9.25 12.8374C9.25 14.3562 10.4812 15.5874 12 15.5874C13.5188 15.5874 14.75 14.3562 14.75 12.8374C14.75 11.3186 13.5188 10.0874 12 10.0874C10.4812 10.0874 9.25 11.3186 9.25 12.8374Z" fill="white"/>
</svg>
