<svg width="116" height="46" viewBox="0 0 116 46" fill="none" xmlns="http://www.w3.org/2000/svg">
<g clip-path="url(#clip0_8202_62143)">
<path d="M21.8908 11.2331C22.3109 11.1848 22.7976 11.2788 23.2023 11.4021C24.118 11.681 24.8623 12.2779 25.3039 13.1306C25.7627 14.0046 25.8505 15.0269 25.548 15.9665C25.1637 17.1254 24.3391 17.7083 23.3097 18.2439L23.3215 21.6238C24.0569 21.848 24.7728 22.102 25.4406 22.489C26.9756 23.3788 28.0257 24.8794 28.466 26.5866C28.9313 28.377 28.6671 30.2799 27.7306 31.8757C26.8717 33.3221 25.5021 34.3903 23.8625 34.7995C21.7205 35.3348 19.9037 34.7554 18.0627 33.6609C17.249 34.5309 16.4449 35.4104 15.6515 36.2995C16.0063 37.1364 16.1241 38.0148 15.8888 38.904C15.6589 39.7733 15.0498 40.5183 14.2707 40.9587C13.3976 41.4529 12.4027 41.5422 11.4455 41.2683C10.4955 40.9964 9.69689 40.4084 9.23259 39.5241C8.77558 38.6547 8.73707 37.6359 9.03337 36.7077C9.37041 35.6531 10.0566 35.0033 11.0217 34.5212C12.0606 34.1148 12.9196 34.2487 13.9338 34.614C14.7781 33.7255 15.5729 32.7916 16.4259 31.9109C15.4885 30.0724 15.1846 28.5061 15.672 26.4802C14.6108 25.9847 13.5875 25.4082 12.5256 24.9118C11.9581 25.5025 11.264 25.9076 10.4494 26.0447C9.47808 26.2081 8.45385 25.943 7.65544 25.3728C6.86426 24.7996 6.34378 23.9254 6.21599 22.9568C6.08493 22.0177 6.33236 20.9831 6.93376 20.2419C7.55403 19.4774 8.51644 19.0156 9.48845 18.9138C10.4434 18.8208 11.3962 19.1124 12.1359 19.7234C13.0818 20.5156 13.3552 21.5008 13.4699 22.6745C14.4764 23.2916 15.6291 23.7671 16.6779 24.3181C18.0426 22.7048 19.0403 22.1959 21.0295 21.5827L21.0304 18.2282C20.6745 18.0858 20.3191 17.9123 20.009 17.6843C19.2242 17.1037 18.7084 16.2293 18.5812 15.2615C18.4636 14.2986 18.736 13.3285 19.3371 12.5671C19.994 11.7431 20.8722 11.3679 21.8908 11.2331ZM26.2765 27.9197C26.0742 25.612 24.0461 23.9008 21.7375 24.0886C19.4084 24.2783 17.6788 26.3274 17.883 28.655C18.0872 30.9835 20.1471 32.7007 22.4738 32.4822C24.7798 32.2648 26.4788 30.2269 26.2765 27.9197Z" fill="#764191"/>
<path d="M104.917 22.6787C105.603 22.6796 106.289 22.6886 106.975 22.7061L106.971 26.332C107.499 25.9211 108.075 25.6147 108.744 25.5146C109.648 25.3778 110.57 25.6123 111.299 26.1641C112.179 26.8294 112.641 27.9491 112.774 29.0195C112.944 30.3775 112.625 31.6831 111.787 32.7656C111.231 33.3021 110.564 33.6776 109.795 33.8037C108.666 33.9892 107.771 33.5943 106.891 32.9375L106.887 33.7295L104.918 33.7256L104.917 22.6787ZM108.443 27.4297C107.832 27.6328 107.406 27.923 107.108 28.5117C106.777 29.1652 106.754 29.9732 107.013 30.6543C107.21 31.1758 107.58 31.6272 108.095 31.8594C108.469 32.0286 108.821 32.0338 109.224 32.0098C109.862 31.7683 110.292 31.4586 110.581 30.8193C110.883 30.1517 110.878 29.3467 110.592 28.6748C110.372 28.158 109.98 27.7417 109.452 27.5371C109.122 27.4097 108.791 27.3929 108.443 27.4297Z" fill="#764191"/>
<path d="M45.9814 22.6577C47.1884 26.3777 48.733 29.9966 49.9102 33.7271L47.6855 33.729C47.4248 32.9325 47.1733 32.0317 46.7754 31.2954C46.5154 31.1843 46.2077 31.2215 45.9297 31.2251C44.8568 31.2357 43.7837 31.2328 42.7109 31.2144C42.3741 32.0362 42.1026 32.8814 41.8359 33.728L39.5703 33.7261C40.7536 30.0127 42.1641 26.3468 43.4414 22.6626C44.2864 22.6809 45.1361 22.6611 45.9814 22.6577ZM44.7129 25.4077C44.2445 26.7392 43.8077 28.0891 43.2949 29.4038L44.9238 29.4028L46.1895 29.3892C46.0117 28.8887 44.9786 25.6296 44.7129 25.4077Z" fill="#764191"/>
<path d="M92.8819 22.6816L95.0094 22.6944C94.9804 25.2589 95.003 27.827 95.0023 30.3914C95.0016 31.4499 95.1092 32.6067 94.9903 33.651L94.8735 33.731H92.8797L92.8755 28.9952C91.2818 28.9506 89.6761 28.9903 88.081 28.9924L88.0817 33.7331L85.9414 33.7289L85.9499 22.6846L88.0817 22.6896L88.0831 27.2054H92.8847L92.8819 22.6816Z" fill="#764191"/>
<path d="M96.2897 25.7432C96.9955 25.7633 97.7035 25.7559 98.4094 25.7598C98.4009 26.8885 98.2225 30.0065 98.4958 30.9396C98.6034 31.3078 98.8186 31.6448 99.1669 31.8239C99.6909 32.0929 100.223 31.9372 100.744 31.7545C100.974 31.4968 101.173 31.2554 101.287 30.9226C101.66 29.8344 101.461 27.0414 101.455 25.7468C102.128 25.7648 102.802 25.7507 103.475 25.7473C103.46 26.5225 103.472 27.3005 103.471 28.0765L103.481 33.7277C102.82 33.7376 102.159 33.7327 101.498 33.7128L101.437 33.6413C101.447 33.4735 101.45 33.3369 101.42 33.1698C100.8 33.4381 100.249 33.8452 99.5443 33.8594C98.7273 33.8757 97.8409 33.6222 97.2546 33.0346C96.81 32.59 96.5389 31.9917 96.3994 31.3849C96.0992 30.0794 96.2762 27.188 96.2897 25.7432Z" fill="#764191"/>
<path d="M67.6955 25.5205C68.7504 25.4379 69.8499 25.5125 70.7024 26.2231C71.2999 26.7207 71.4932 27.3181 71.5576 28.0608L69.651 28.0587C69.5412 27.8548 69.4315 27.6183 69.2595 27.459C68.9848 27.2056 68.5869 27.0739 68.2152 27.0937C67.9263 27.1093 67.5574 27.2247 67.3776 27.4689C67.2686 27.6176 67.2084 27.7705 67.2502 27.956C67.4668 28.9338 69.9526 28.8127 70.7441 29.3302C71.2475 29.6602 71.6341 30.2513 71.7459 30.8411C71.8578 31.4443 71.7141 32.0673 71.3502 32.5608C70.7427 33.3984 69.8067 33.6993 68.8325 33.8487C67.9306 33.9032 66.8849 33.661 66.1627 33.1116C65.4859 32.5962 65.2423 31.964 65.1503 31.1498C65.7924 31.1512 66.4353 31.1448 67.0774 31.1321C67.1149 31.2532 67.1567 31.37 67.2176 31.4818C67.4973 31.998 68.0559 32.1127 68.5734 32.2649C68.9154 32.1863 69.3784 32.0985 69.6212 31.8224C69.7678 31.6553 69.8188 31.3657 69.7572 31.1533C69.52 30.3363 67.1383 30.24 66.3121 29.7317C65.8229 29.4301 65.4632 28.9911 65.3329 28.4247C65.2154 27.9114 65.26 27.3344 65.5489 26.8848C66.07 26.0709 66.7893 25.7367 67.6955 25.5205Z" fill="#764191"/>
<path d="M80.5252 25.5183C81.1256 25.4696 81.7139 25.473 82.2994 25.6313C82.9749 25.8141 83.692 26.1914 84.0333 26.831C84.1976 27.1376 84.3236 27.6891 84.2131 28.0297C83.6659 28.1479 82.9975 28.0679 82.4354 28.0615C82.3525 27.7833 82.2824 27.5688 82.0566 27.3762C81.7706 27.1369 81.3989 27.0236 81.0279 27.064C80.7376 27.0937 80.3645 27.2367 80.2023 27.4966C80.1054 27.6516 80.0657 27.8109 80.1266 27.9893C80.4778 29.0237 82.5826 28.778 83.4011 29.2453C83.9222 29.5434 84.3583 30.0673 84.5062 30.6535C84.6655 31.2829 84.5601 31.9824 84.1969 32.524C83.6545 33.3325 82.7929 33.637 81.8838 33.8133C80.9911 33.9237 79.9574 33.734 79.2112 33.2193C78.4451 32.6911 78.215 32.0284 78.043 31.1625L79.9546 31.1484C80.0707 31.4408 80.1762 31.6688 80.424 31.8712C80.7539 32.1417 81.1454 32.2642 81.5709 32.2075C81.9008 32.1636 82.2258 32.0121 82.4233 31.736C82.5522 31.5548 82.6166 31.3346 82.555 31.1144C82.3157 30.2641 80.2052 30.3172 79.3676 29.8662C78.8019 29.5611 78.3538 29.0541 78.1747 28.4318C78.0224 27.9051 78.0862 27.3564 78.3644 26.8827C78.8267 26.0982 79.6749 25.7145 80.5252 25.5183Z" fill="#764191"/>
<path d="M56.9954 23.5503C57.6297 23.5722 58.269 23.5587 58.9041 23.5614C58.897 24.278 58.9076 24.9947 58.9353 25.7108L60.8185 25.7119L60.8143 27.3534L59.0209 27.3526C59.0216 28.3856 58.7852 31.0505 59.2595 31.8484C59.6298 32.1401 60.369 32.0311 60.8185 32.0261L60.8122 33.3862C60.8164 33.5263 60.8157 33.5971 60.7442 33.7196C60.4936 33.84 60.2366 33.8669 59.9597 33.869C59.2312 33.8754 58.2251 33.7437 57.7012 33.1978C56.6492 32.1026 56.9854 28.8798 56.9904 27.3512L55.7752 27.3534L55.7788 25.7082L56.989 25.7164L56.9954 23.5503Z" fill="#764191"/>
<path d="M73.366 23.5415L75.2393 23.5523C75.2252 24.27 75.2549 24.9912 75.2684 25.709L77.1821 25.7052L77.1792 27.3543L75.3781 27.3529C75.4001 28.3363 75.1593 31.0826 75.6047 31.826C76.0833 32.112 76.6829 32.0356 77.221 32.0342C77.2146 32.5078 77.2239 32.9829 77.226 33.4572L77.2033 33.6371C77.0178 33.8332 76.7325 33.8247 76.4797 33.8311C75.7102 33.8495 74.6475 33.7277 74.0896 33.1436C73.0481 32.0533 73.3724 28.8758 73.3816 27.3522L72.1001 27.3529C72.0838 26.8071 72.0902 26.2594 72.0859 25.7136L73.3625 25.7201L73.366 23.5415Z" fill="#764191"/>
<path d="M32.9502 22.3145C33.0487 22.3096 33.1443 22.3082 33.2423 22.3223C33.5485 22.3667 33.8502 22.5146 34.0189 22.7834C34.1978 23.0687 34.2223 23.4485 34.2468 23.7789C34.3682 25.4143 34.278 27.1155 34.2776 28.7566C34.2772 30.0969 34.4258 31.9143 34.1769 33.205C34.0986 33.6106 33.8296 33.8046 33.5074 34.0241C33.3847 34.039 33.2563 34.056 33.1325 34.0489C32.8561 34.0333 32.5942 33.9101 32.4154 33.6991C32.2386 33.4903 32.2437 33.0711 32.2281 32.8092C32.1157 30.928 32.2107 28.9867 32.2124 27.0999C32.2134 26.0277 32.066 23.9753 32.2915 23.0184C32.3721 22.6761 32.6806 22.4967 32.9502 22.3145Z" fill="#764191"/>
<path d="M54.6737 25.6823L54.9428 25.6792C55.2619 26.0359 55.1035 27.166 55.0933 27.634C54.4191 27.6269 53.7815 27.6 53.2534 28.0899C52.2624 29.0089 52.5965 32.3768 52.5866 33.7284C52.0554 33.7234 51.0206 33.9174 50.6148 33.5797L50.5936 33.2448C50.6033 30.7399 50.5403 28.2372 50.5563 25.7327C51.1994 25.7528 51.8446 25.7391 52.488 25.7356L52.4654 26.8417C52.5847 26.6705 52.7032 26.487 52.8417 26.3308C53.3293 25.7809 53.9905 25.7311 54.6737 25.6823Z" fill="#764191"/>
<path d="M61.9891 25.7153L64.0097 25.7161L64.0147 33.7325L61.9707 33.7297L61.9891 25.7153Z" fill="#764191"/>
<path d="M30.1281 24.9414C30.4599 25.0026 30.7534 25.1273 30.9468 25.4154C31.245 25.86 31.253 30.2153 31.1036 30.8369C31.0219 31.1768 30.7279 31.3424 30.4492 31.506C30.1299 31.4869 29.7103 31.4586 29.4971 31.1817C29.1799 30.7704 29.2062 26.1415 29.3868 25.561C29.4917 25.2237 29.8385 25.0811 30.1281 24.9414Z" fill="#764191"/>
<path d="M62.866 22.4125C63.4664 22.3419 64.0144 22.7616 64.1021 23.3595C64.1906 23.9576 63.7871 24.5173 63.1924 24.6231C62.7909 24.6943 62.3831 24.5419 62.1275 24.2252C61.8713 23.9086 61.8082 23.4778 61.9619 23.1007C62.1155 22.7237 62.4617 22.46 62.866 22.4125Z" fill="#764191"/>
</g>
<defs>
<clipPath id="clip0_8202_62143">
<rect width="116" height="45" fill="white" transform="translate(0 0.594727)"/>
</clipPath>
</defs>
</svg>
