<svg width="84" height="37" viewBox="0 0 84 37" fill="none" xmlns="http://www.w3.org/2000/svg">
<g clip-path="url(#clip0_8278_69900)">
<g clip-path="url(#clip1_8278_69900)">
<path d="M21.8906 11.5271C22.3108 11.4788 22.7974 11.5727 23.2021 11.696C24.1178 11.975 24.8621 12.5719 25.3037 13.4245C25.7625 14.2986 25.8504 15.3209 25.5478 16.2605C25.1635 17.4194 24.3389 18.0022 23.3096 18.5378L23.3213 21.9177C24.0568 22.142 24.7726 22.3959 25.4404 22.7829C26.9754 23.6727 28.0255 25.1734 28.4658 26.8806C28.9312 28.671 28.6669 30.5739 27.7305 32.1697C26.8715 33.616 25.5019 34.6842 23.8623 35.0935C21.7203 35.6287 19.9035 35.0494 18.0625 33.9548C17.2488 34.8248 16.4448 35.7044 15.6514 36.5935C16.0061 37.4303 16.1239 38.3087 15.8887 39.198C15.6587 40.0673 15.0496 40.8123 14.2705 41.2527C13.3974 41.7468 12.4025 41.8362 11.4453 41.5622C10.4953 41.2904 9.69671 40.7024 9.23241 39.8181C8.7754 38.9487 8.73689 37.9299 9.03319 37.0017C9.37023 35.947 10.0565 35.2973 11.0215 34.8152C12.0604 34.4088 12.9194 34.5426 13.9336 34.9079C14.7779 34.0194 15.5727 33.0855 16.4258 32.2048C15.4883 30.3663 15.1844 28.8001 15.6719 26.7741C14.6106 26.2787 13.5873 25.7021 12.5254 25.2058C11.9579 25.7965 11.2638 26.2016 10.4492 26.3386C9.47789 26.502 8.45367 26.237 7.65526 25.6667C6.86407 25.0935 6.3436 24.2193 6.2158 23.2507C6.08475 22.3116 6.33217 21.277 6.93358 20.5359C7.55385 19.7714 8.51626 19.3096 9.48827 19.2077C10.4432 19.1147 11.396 19.4063 12.1357 20.0173C13.0816 20.8096 13.355 21.7948 13.4697 22.9685C14.4763 23.5856 15.6289 24.061 16.6777 24.612C18.0424 22.9987 19.0401 22.4899 21.0293 21.8767L21.0303 18.5222C20.6743 18.3797 20.319 18.2063 20.0088 17.9782C19.224 17.3977 18.7083 16.5232 18.581 15.5554C18.4635 14.5925 18.7359 13.6224 19.3369 12.8611C19.9938 12.037 20.872 11.6619 21.8906 11.5271ZM26.2764 28.2136C26.074 25.906 24.0459 24.1948 21.7373 24.3825C19.4082 24.5723 17.6787 26.6213 17.8828 28.949C18.087 31.2774 20.1469 32.9947 22.4736 32.7761C24.7796 32.5588 26.4786 30.5209 26.2764 28.2136Z" fill="#764191"/>
<path d="M45.9814 22.9517C47.1884 26.6717 48.733 30.2906 49.9102 34.021L47.6855 34.0229C47.4248 33.2265 47.1733 32.3257 46.7754 31.5894C46.5154 31.4782 46.2077 31.5155 45.9297 31.519C44.8568 31.5297 43.7837 31.5267 42.7109 31.5083C42.3741 32.3302 42.1026 33.1753 41.8359 34.022L39.5703 34.02C40.7536 30.3067 42.1641 26.6407 43.4414 22.9565C44.2864 22.9749 45.1361 22.9551 45.9814 22.9517ZM44.7129 25.7017C44.2445 27.0332 43.8077 28.383 43.2949 29.6978L44.9238 29.6968L46.1895 29.6831C46.0117 29.1826 44.9786 25.9236 44.7129 25.7017Z" fill="#764191"/>
<path d="M67.6956 25.8145C68.7505 25.7319 69.8501 25.8064 70.7025 26.517C71.3 27.0146 71.4933 27.6121 71.5577 28.3548L69.6511 28.3526C69.5414 28.1487 69.4316 27.9123 69.2596 27.753C68.9849 27.4995 68.587 27.3678 68.2153 27.3876C67.9264 27.4032 67.5576 27.5186 67.3777 27.7629C67.2687 27.9116 67.2085 28.0645 67.2503 28.25C67.4669 29.2277 69.9527 29.1066 70.7442 29.6242C71.2476 29.9541 71.6342 30.5453 71.7461 31.1351C71.8579 31.7383 71.7142 32.3613 71.3503 32.8548C70.7428 33.6923 69.8069 33.9932 68.8327 34.1426C67.9307 34.1971 66.885 33.955 66.1628 33.4056C65.486 32.8902 65.2424 32.2579 65.1504 31.4437C65.7925 31.4452 66.4354 31.4388 67.0775 31.426C67.1151 31.5471 67.1568 31.6639 67.2177 31.7758C67.4974 32.2919 68.056 32.4066 68.5735 32.5588C68.9155 32.4802 69.3785 32.3924 69.6214 32.1163C69.7679 31.9492 69.8189 31.6597 69.7573 31.4473C69.5201 30.6302 67.1384 30.534 66.3122 30.0256C65.823 29.724 65.4633 29.2851 65.3331 28.7187C65.2155 28.2054 65.2601 27.6284 65.549 27.1788C66.0701 26.3649 66.7894 26.0306 67.6956 25.8145Z" fill="#764191"/>
<path d="M80.5252 25.8122C81.1256 25.7636 81.7139 25.7669 82.2994 25.9252C82.9749 26.108 83.692 26.4853 84.0333 27.125C84.1976 27.4315 84.3236 27.9831 84.2131 28.3236C83.6659 28.4419 82.9975 28.3619 82.4354 28.3555C82.3525 28.0772 82.2824 27.8627 82.0566 27.6701C81.7706 27.4308 81.3989 27.3176 81.0279 27.3579C80.7376 27.3877 80.3645 27.5307 80.2023 27.7905C80.1054 27.9456 80.0657 28.1049 80.1266 28.2833C80.4778 29.3176 82.5826 29.072 83.4011 29.5392C83.9222 29.8373 84.3583 30.3612 84.5062 30.9474C84.6655 31.5769 84.5601 32.2763 84.1969 32.818C83.6545 33.6265 82.7929 33.9309 81.8838 34.1072C80.9911 34.2177 79.9574 34.0279 79.2112 33.5132C78.4451 32.9851 78.215 32.3224 78.043 31.4565L79.9546 31.4423C80.0707 31.7347 80.1762 31.9627 80.424 32.1652C80.7539 32.4356 81.1454 32.5581 81.5709 32.5015C81.9008 32.4576 82.2258 32.3061 82.4233 32.03C82.5522 31.8487 82.6166 31.6285 82.555 31.4084C82.3157 30.5581 80.2052 30.6112 79.3676 30.1602C78.8019 29.855 78.3538 29.3481 78.1747 28.7258C78.0224 28.199 78.0862 27.6503 78.3644 27.1767C78.8267 26.3921 79.6749 26.0084 80.5252 25.8122Z" fill="#764191"/>
<path d="M56.9955 23.8442C57.6299 23.8661 58.2692 23.8526 58.9043 23.8554C58.8972 24.5719 58.9078 25.2886 58.9354 26.0048L60.8187 26.0059L60.8145 27.6473L59.0211 27.6466C59.0218 28.6796 58.7854 31.3444 59.2597 32.1423C59.63 32.434 60.3691 32.325 60.8187 32.3201L60.8123 33.6801C60.8166 33.8203 60.8159 33.8911 60.7444 34.0136C60.4937 34.1339 60.2367 34.1608 59.9599 34.163C59.2314 34.1693 58.2253 34.0376 57.7014 33.4918C56.6493 32.3965 56.9856 29.1737 56.9906 27.6452L55.7754 27.6473L55.779 26.0021L56.9892 26.0103L56.9955 23.8442Z" fill="#764191"/>
<path d="M73.366 23.8354L75.2393 23.8462C75.2252 24.564 75.2549 25.2851 75.2684 26.003L77.1821 25.9992L77.1792 27.6483L75.3781 27.6469C75.4001 28.6303 75.1593 31.3766 75.6047 32.12C76.0833 32.406 76.6829 32.3295 77.221 32.3281C77.2146 32.8018 77.2239 33.2768 77.226 33.7512L77.2033 33.931C77.0178 34.1271 76.7325 34.1186 76.4797 34.125C75.7102 34.1434 74.6475 34.0216 74.0896 33.4375C73.0481 32.3472 73.3724 29.1698 73.3816 27.6462L72.1001 27.6469C72.0838 27.101 72.0902 26.5534 72.0859 26.0075L73.3625 26.0141L73.366 23.8354Z" fill="#764191"/>
<path d="M32.9502 22.6084C33.0487 22.6035 33.1443 22.6021 33.2423 22.6163C33.5485 22.6607 33.8502 22.8086 34.0189 23.0774C34.1978 23.3626 34.2223 23.7425 34.2468 24.0729C34.3682 25.7082 34.278 27.4095 34.2776 29.0506C34.2772 30.3908 34.4258 32.2082 34.1769 33.4989C34.0986 33.9046 33.8296 34.0986 33.5074 34.3181C33.3847 34.3329 33.2563 34.3499 33.1325 34.3428C32.8561 34.3273 32.5942 34.2041 32.4154 33.9931C32.2386 33.7842 32.2437 33.3651 32.2281 33.1031C32.1157 31.222 32.2107 29.2807 32.2124 27.3939C32.2134 26.3217 32.066 24.2692 32.2915 23.3124C32.3721 22.97 32.6806 22.7906 32.9502 22.6084Z" fill="#764191"/>
<path d="M54.6737 25.9763L54.9428 25.9731C55.2619 26.3298 55.1035 27.4599 55.0933 27.9279C54.4191 27.9208 53.7815 27.8939 53.2534 28.3839C52.2624 29.3028 52.5965 32.6708 52.5866 34.0223C52.0554 34.0174 51.0206 34.2114 50.6148 33.8736L50.5936 33.5388C50.6033 31.0339 50.5403 28.5311 50.5563 26.0267C51.1994 26.0467 51.8446 26.033 52.488 26.0296L52.4654 27.1357C52.5847 26.9644 52.7032 26.781 52.8417 26.6248C53.3293 26.0748 53.9905 26.025 54.6737 25.9763Z" fill="#764191"/>
<path d="M61.9891 26.0093L64.0097 26.0101L64.0147 34.0265L61.9707 34.0236L61.9891 26.0093Z" fill="#764191"/>
<path d="M30.1281 25.2354C30.4599 25.2965 30.7534 25.4212 30.9468 25.7094C31.245 26.1539 31.253 30.5093 31.1036 31.1309C31.0219 31.4707 30.7279 31.6364 30.4492 31.7999C30.1299 31.7808 29.7103 31.7525 29.4971 31.4757C29.1799 31.0643 29.2062 26.4354 29.3868 25.8549C29.4917 25.5176 29.8385 25.375 30.1281 25.2354Z" fill="#764191"/>
<path d="M62.8658 22.7065C63.4662 22.6359 64.0142 23.0555 64.102 23.6535C64.1905 24.2515 63.7869 24.8113 63.1922 24.917C62.7908 24.9883 62.383 24.8358 62.1274 24.5191C61.8711 24.2025 61.8081 23.7717 61.9617 23.3946C62.1153 23.0176 62.4615 22.754 62.8658 22.7065Z" fill="#764191"/>
</g>
</g>
<defs>
<clipPath id="clip0_8278_69900">
<rect width="84" height="36" fill="white" transform="translate(0 0.888672)"/>
</clipPath>
<clipPath id="clip1_8278_69900">
<rect width="84" height="36" fill="white" transform="translate(0 0.888672)"/>
</clipPath>
</defs>
</svg>
