<svg width="24" height="25" viewBox="0 0 24 25" fill="none" xmlns="http://www.w3.org/2000/svg">
<path d="M21.5933 7.79773C21.4794 7.37514 21.2568 6.98974 20.9477 6.6799C20.6386 6.37006 20.2537 6.14659 19.8313 6.03173C18.2653 5.60173 12.0003 5.59473 12.0003 5.59473C12.0003 5.59473 5.73633 5.58773 4.16933 5.99873C3.74725 6.11888 3.36315 6.34551 3.0539 6.65687C2.74464 6.96823 2.52062 7.35386 2.40333 7.77673C1.99033 9.34273 1.98633 12.5907 1.98633 12.5907C1.98633 12.5907 1.98233 15.8547 2.39233 17.4047C2.62233 18.2617 3.29733 18.9387 4.15533 19.1697C5.73733 19.5997 11.9853 19.6067 11.9853 19.6067C11.9853 19.6067 18.2503 19.6137 19.8163 19.2037C20.2388 19.0891 20.6241 18.8661 20.934 18.5569C21.2439 18.2477 21.4677 17.863 21.5833 17.4407C21.9973 15.8757 22.0003 12.6287 22.0003 12.6287C22.0003 12.6287 22.0203 9.36373 21.5933 7.79773ZM9.99633 15.5997L10.0013 9.59973L15.2083 12.6047L9.99633 15.5997Z" fill="white"/>
</svg>
