<svg aria-hidden="true" style="position: absolute; width: 0; height: 0; overflow: hidden;" version="1.1" xmlns="http://www.w3.org/2000/svg" xmlns:xlink="http://www.w3.org/1999/xlink">
  <defs>
    <symbol id="icon-close-modal" viewBox="0 0 32 32">
      <path d="M29.671 28.728l-0.943 0.943c-0.521 0.521-1.365 0.521-1.886 0l-10.842-10.842-10.842 10.842c-0.521 0.521-1.365 0.521-1.886 0l-0.943-0.943c-0.521-0.521-0.521-1.365 0-1.886l10.842-10.842-10.842-10.842c-0.521-0.521-0.521-1.365 0-1.886l0.943-0.943c0.521-0.521 1.365-0.521 1.886 0l10.842 10.842 10.842-10.842c0.521-0.521 1.365-0.521 1.886 0l0.943 0.943c0.521 0.521 0.521 1.365 0 1.886l-10.842 10.842 10.842 10.842c0.521 0.521 0.521 1.365 0 1.886z"></path>
    </symbol>
    <symbol id="icon-youtube" viewBox="0 0 45 32">
      <path d="M43.932 5.154c-0.243-0.902-0.718-1.724-1.377-2.385s-1.481-1.138-2.382-1.383c-3.341-0.917-16.706-0.932-16.706-0.932s-13.363-0.015-16.706 0.862c-0.9 0.256-1.72 0.74-2.38 1.404s-1.138 1.487-1.388 2.389c-0.881 3.341-0.89 10.27-0.89 10.27s-0.009 6.963 0.866 10.27c0.491 1.828 1.931 3.273 3.761 3.765 3.375 0.917 16.704 0.932 16.704 0.932s13.365 0.015 16.706-0.86c0.901-0.244 1.723-0.72 2.384-1.38s1.139-1.48 1.385-2.381c0.883-3.339 0.89-10.265 0.89-10.265s0.043-6.965-0.868-10.306zM19.192 21.799l0.011-12.8 11.108 6.411-11.119 6.389z"></path>
    </symbol>
  </defs>
</svg>